<svg width="32" height="32" viewBox="0 0 32 32" fill="none">
  <path d="M29.0742 14.0087C29.4362 12.8155 29.4503 11.5537 29.1151 10.3524C28.78 9.15105 28.1077 8.05763 27.1717 7.19047C26.2357 6.32331 25.0715 5.71431 23.8074 5.42911C22.5433 5.14391 21.2281 5.19344 19.9905 5.57246C19.1357 4.51338 18.0249 3.69002 16.7641 3.17691C15.5033 2.66379 14.1345 2.47762 12.7859 2.63409C11.4373 2.79056 10.1515 3.28497 9.04915 4.07346C7.94684 4.86195 7.06108 5.91961 6.47621 7.14695C5.27328 7.27877 4.12531 7.71861 3.13301 8.42736C2.14071 9.13611 1.33623 10.0901 0.790195 11.2003C0.244159 12.3105 -0.0266305 13.5446 0.00210552 14.7897C0.0308415 16.0348 0.358615 17.2557 0.956161 18.3414C0.594181 19.5346 0.580036 20.7964 0.915225 21.9977C1.25041 23.199 1.92271 24.2924 2.85871 25.1596C3.79471 26.0267 4.95889 26.6357 6.22299 26.9209C7.48709 27.2061 8.80226 27.1566 10.0399 26.7776C10.8947 27.8367 12.0055 28.66 13.2663 29.1731C14.5271 29.6862 15.8959 29.8724 17.2445 29.7159C18.5931 29.5595 19.8789 29.0651 20.9812 28.2766C22.0836 27.4881 22.9693 26.4304 23.5542 25.2031C24.7571 25.0713 25.9051 24.6314 26.8974 23.9227C27.8897 23.2139 28.6942 22.26 29.2402 21.1498C29.7862 20.0396 30.057 18.8054 30.0283 17.5603C29.9996 16.3152 29.6718 15.0944 29.0742 14.0087Z" fill="url(#paint0_radial_1_3)"/>
  <defs>
    <radialGradient id="paint0_radial_1_3" cx="0" cy="0" r="1" gradientUnits="userSpaceOnUse" gradientTransform="translate(15.0152 16.175) scale(15.0152)">
      <stop stop-color="#2DD4BF"/>
      <stop offset="1" stop-color="#14B8A6"/>
    </radialGradient>
  </defs>
</svg> 